<?xml version="1.0" encoding="UTF-8"?>
<svg version="1.1" xmlns="http://www.w3.org/2000/svg" width="483" height="517">
<path d="M0 0 C8.20943459 0.06784657 12.7498316 2.90117841 19 8 C19.99 8.66 20.98 9.32 22 10 C20.87203657 13.10189943 19.64689582 15.53470062 17.8125 18.3125 C15.34091262 22.48957387 16.08187822 25.33288097 17 30 C17 34.90521615 15.96542705 39.01833394 13.8125 43.4375 C12.83169541 46.53080679 13.4432931 48.75021348 13.98046875 51.890625 C14.00471703 54.50943913 13.24784058 55.81620187 11.9375 58.0625 C10.04955344 61.34868685 9.93798073 61.69507193 10.75 65.6875 C11.1625 66.780625 11.575 67.87375 12 69 C12.25 71.8125 12.25 71.8125 12 74 C11.34 74.66 10.68 75.32 10 76 C9.61247123 78.3332963 9.61247123 78.3332963 9.5 80.9375 C9.28284471 84.62371105 9.11910421 85.82134368 7 89 C6.9603287 90.66619446 6.95615553 92.33391013 7 94 C6.67 94.33 6.34 94.66 6 95 C5.89402833 96.72792703 5.81536881 98.45756106 5.75 100.1875 C5.30822529 105.86430507 3.96264044 108.03735956 0 112 C-1.69286631 117.07859892 -1.42793319 122.42919609 -1.625 127.75 C-1.6765625 128.91789063 -1.728125 130.08578125 -1.78125 131.2890625 C-2.33168373 141.11652269 -2.33168373 141.11652269 0.125 150.5 C2.10338045 156.15251558 -0.37416068 162.14494276 -2.56640625 167.4609375 C-4.19158365 170.3393171 -6.03496444 172.23737916 -8.4375 174.5 C-14.02432954 179.78259625 -17.77267298 184.71790128 -18.19140625 192.60546875 C-18.14854885 195.03825619 -18.04966517 197.47100024 -17.8828125 199.8984375 C-18 203 -18 203 -19.10546875 205.3984375 C-21.81069102 207.68532643 -23.70155182 207.39993325 -27.1875 207.25 C-28.27417969 207.21390625 -29.36085938 207.1778125 -30.48046875 207.140625 C-31.31191406 207.09421875 -32.14335937 207.0478125 -33 207 C-31.92598892 204.08482708 -31.22189824 202.22189824 -29 200 C-28.28591666 198.01643517 -27.61382258 196.01684563 -27 194 C-27.99 193.67 -28.98 193.34 -30 193 C-29.67 192.443125 -29.34 191.88625 -29 191.3125 C-27.8690399 188.69715478 -27.84337026 186.8193354 -28 184 C-35.54566908 185.98570239 -38.95531422 189.39400953 -43 196 C-44.39754245 198.77236064 -45.6689814 201.5548707 -46.859375 204.421875 C-48.04355803 207.09845308 -49.44855911 209.52126111 -51 212 C-50.195625 211.54625 -49.39125 211.0925 -48.5625 210.625 C-44.44721372 208.74785187 -40.55229574 207.23456486 -36 207 C-32.2639374 209.16298361 -30.88695866 212.80477689 -29.54296875 216.77734375 C-28.61606754 220.57163721 -28.33987499 224.13903628 -29 228 C-30.4375 230.1875 -30.4375 230.1875 -33 232 C-33.70253906 232.5053125 -34.40507812 233.010625 -35.12890625 233.53125 C-41.83256229 238.2138697 -41.83256229 238.2138697 -46 239 C-46.33 238.01 -46.66 237.02 -47 236 C-52.52597661 239.83957503 -57.26204568 244.09662671 -61.921875 248.94921875 C-64 251 -64 251 -66.265625 252.64453125 C-66.83796875 253.09183594 -67.4103125 253.53914062 -68 254 C-68 254.66 -68 255.32 -68 256 C-67.34 256 -66.68 256 -66 256 C-65.61989124 259.33651025 -65.86559507 260.78171114 -67.65234375 263.68359375 C-72.03050606 268.95984064 -76.02735423 273.23741902 -82.0546875 276.5859375 C-84.17663197 277.93124288 -84.17663197 277.93124288 -85.43359375 280.4296875 C-88.49618921 285.45509352 -94.59779009 289.0296514 -100.21875 290.6328125 C-103.44412512 291.02958484 -106.69114547 291.02194113 -109.9375 291.125 C-114.43656723 291.68846699 -116.86309476 294.09821388 -120.23828125 296.9609375 C-124.28704544 299.95026551 -128.70240477 302.01204523 -133.24023438 304.15844727 C-142.54698458 308.52975634 -142.54698458 308.52975634 -147.75 317.125 C-149.84942085 322.84942085 -149.84942085 322.84942085 -152 325 C-154.3125 325.375 -154.3125 325.375 -157 325 C-157.78375 324.360625 -158.5675 323.72125 -159.375 323.0625 C-162.79467438 320.37561299 -164.64621483 320 -169 320 C-173.40897325 321.20122711 -177.44211332 322.56449508 -180.83984375 325.6953125 C-182.52929979 329.05147096 -181.84147515 331.5071835 -181.3125 335.1875 C-180.7163771 340.37101408 -180.80792067 343.79341409 -184 348.125 C-184.5775 348.76695312 -185.155 349.40890625 -185.75 350.0703125 C-187.29347238 352.00533639 -187.29347238 352.00533639 -186.6875 354.7421875 C-186.3471875 355.85980469 -186.3471875 355.85980469 -186 357 C-187.11375 357.804375 -187.11375 357.804375 -188.25 358.625 C-191.78098632 361.67448819 -194.03582813 365.07500408 -196.125 369.24609375 C-198.14348018 372.90458908 -199.7272936 375.42270952 -203.609375 377.18359375 C-205.76744315 377.79979341 -207.93842802 378.37167014 -210.1171875 378.91015625 C-214.73409852 380.09505916 -218.96816372 382.06826101 -223.3125 384 C-233.5289966 388.44944846 -243.66258517 391.07218338 -254.625 393 C-258.829278 393.77908991 -261.4727974 395.57014932 -265 398 C-281.79931934 401.84110587 -300.134256 395.4364284 -315 388 C-315.71994141 387.65404785 -316.43988281 387.3080957 -317.18164062 386.95166016 C-317.88482422 386.61054199 -318.58800781 386.26942383 -319.3125 385.91796875 C-320.25029297 385.46393677 -320.25029297 385.46393677 -321.20703125 385.00073242 C-324.14368568 383.36166019 -326.50555322 381.2450021 -329 379 C-328.125 375.125 -328.125 375.125 -327 374 C-325.49981109 373.72640534 -323.9892952 373.50891754 -322.4765625 373.31640625 C-321.07724487 373.13331909 -321.07724487 373.13331909 -319.6496582 372.9465332 C-318.651521 372.81980225 -317.65338379 372.69307129 -316.625 372.5625 C-314.58955254 372.29911578 -312.55438987 372.03352047 -310.51953125 371.765625 C-309.14051636 371.58821777 -309.14051636 371.58821777 -307.73364258 371.40722656 C-304.89652538 370.98458554 -302.11468085 370.42309596 -299.3125 369.8125 C-295.9117761 369.1035543 -292.79019481 368.99398115 -289.3359375 369.125 C-288.48990967 369.15231201 -287.64388184 369.17962402 -286.7722168 369.20776367 C-285.08709802 369.27604703 -283.40288002 369.37628582 -281.72192383 369.51293945 C-279.30127765 369.61557905 -277.34754814 369.61506481 -275 369 C-273.2377625 367.33419423 -271.91603252 365.55529907 -270.48608398 363.60083008 C-269 362 -269 362 -265.30859375 361.16796875 C-264.03113281 361.17441406 -262.75367188 361.18085938 -261.4375 361.1875 C-256.68438449 361.16356689 -253.33535151 360.93253805 -249 359 C-246.33427985 358.50686503 -243.70184283 358.27476368 -241 358 C-240.773125 357.2575 -240.54625 356.515 -240.3125 355.75 C-237.95527631 350.81105513 -233.55399219 348.61110453 -228.84375 346.22265625 C-222.98512472 342.3375933 -219.7009819 336.67509407 -216.125 330.8125 C-215.0626926 329.10583956 -213.99890266 327.40010099 -212.93359375 325.6953125 C-212.42683105 324.88223633 -211.92006836 324.06916016 -211.39794922 323.23144531 C-209.70064855 320.52216691 -207.97494696 317.83827168 -206.1875 315.1875 C-205.72730469 314.50042969 -205.26710938 313.81335938 -204.79296875 313.10546875 C-199.8989224 307.35842957 -194.12085846 303.68091266 -187.4375 300.3125 C-186.70853516 299.93544922 -185.97957031 299.55839844 -185.22851562 299.16992188 C-182.07662813 297.54433093 -178.9175938 295.9610479 -175.7109375 294.4453125 C-173.08414428 293.04486079 -171.26823613 291.67141766 -169.1875 289.5625 C-168.60355469 288.98628906 -168.01960937 288.41007812 -167.41796875 287.81640625 C-165.87658055 286.10062197 -165.87658055 286.10062197 -165.515625 283.98046875 C-164.83328278 281.35965432 -163.63224481 280.45398949 -161.5625 278.75 C-160.94503906 278.22921875 -160.32757813 277.7084375 -159.69140625 277.171875 C-158 276 -158 276 -156 276 C-155.6596875 274.4221875 -155.6596875 274.4221875 -155.3125 272.8125 C-154.20639469 268.8402094 -152.11370115 266.70400363 -149 264 C-149.33 263.01 -149.66 262.02 -150 261 C-152.31 261.66 -154.62 262.32 -157 263 C-157 259 -157 259 -155.609375 257.47265625 C-154.99578125 257.00730469 -154.3821875 256.54195313 -153.75 256.0625 C-150.69796515 253.62579476 -148.36658619 251.12727461 -146 248 C-145.02149805 246.97895449 -144.02019573 245.9793879 -143 245 C-142.154375 244.113125 -141.30875 243.22625 -140.4375 242.3125 C-138 240 -138 240 -136 240 C-135.64421875 239.09701172 -135.64421875 239.09701172 -135.28125 238.17578125 C-133.69835373 235.48775313 -132.22117198 234.6815612 -129.5 233.1875 C-124.78136996 230.5058367 -120.41077938 227.52180391 -116.03125 224.3203125 C-114 223 -114 223 -112 223 C-112.061875 221.80375 -112.12375 220.6075 -112.1875 219.375 C-112.2094759 215.23620515 -111.02420381 212.62669849 -109 209 C-109 208.01 -109 207.02 -109 206 C-105.24314562 202.24314562 -100.94074537 199.20414211 -96.625 196.125 C-92.8149582 193.3670609 -89.13551394 190.56467553 -85.6328125 187.42578125 C-84 186 -84 186 -82.0546875 184.54296875 C-78.45394462 181.78045549 -77.17101599 180.7068661 -76.0625 176.125 C-76.041875 175.09375 -76.02125 174.0625 -76 173 C-75.34 173 -74.68 173 -74 173 C-72.32195755 169.1259107 -71.29012749 165.30557369 -70.375 161.1875 C-69.98441406 159.44533203 -69.98441406 159.44533203 -69.5859375 157.66796875 C-69.29589844 156.34732422 -69.29589844 156.34732422 -69 155 C-67.68 154.67 -66.36 154.34 -65 154 C-64.9175 153.319375 -64.835 152.63875 -64.75 151.9375 C-64 149 -64 149 -62.0625 145.8046875 C-59.89323284 142.10071723 -59.04487128 138.3710864 -58.25 134.1875 C-56.8016044 127.54030333 -54.55360075 123.40780957 -49.9609375 118.27734375 C-44.3331845 111.74152702 -42.31958032 104.21591993 -40.7734375 95.8828125 C-39.97354104 92.90138023 -38.94086718 91.3497432 -37 89 C-36.02560425 86.00185923 -35.74394956 84.63159108 -36.9375 81.6875 C-37.288125 81.130625 -37.63875 80.57375 -38 80 C-36.9171875 79.4121875 -36.9171875 79.4121875 -35.8125 78.8125 C-30.00791553 75.07176779 -27.49526329 71.62714288 -25.67578125 65.0859375 C-25 63 -25 63 -23 60 C-22.61786281 57.731832 -22.61786281 57.731832 -22.55078125 55.2109375 C-22.50759766 54.26863281 -22.46441406 53.32632813 -22.41992188 52.35546875 C-22.38447266 51.37191406 -22.34902344 50.38835937 -22.3125 49.375 C-22.26544922 48.41464844 -22.21839844 47.45429687 -22.16992188 46.46484375 C-21.9515244 41.1875014 -22.04942646 36.16438132 -22.8190918 30.93505859 C-23.14289848 27.47150692 -22.44424122 25.12918931 -21 22 C-19.28581574 20.52069195 -17.51931975 19.32468937 -15.60546875 18.1171875 C-13.56947193 16.70041112 -12.94777136 15.26007018 -12 13 C-10.69112542 11.64264858 -9.35147138 10.31494512 -8 9 C-6.1429876 6.91900584 -4.31462796 4.81495604 -2.48828125 2.70703125 C-1.68284459 1.7832102 -0.86665262 0.86665262 0 0 Z M-100 227 C-101.0749725 228.66988503 -101.0749725 228.66988503 -102.125 230.75 C-104.52139864 234.74868277 -106.66705273 236.27377292 -110.89453125 238.07421875 C-113.09017739 239.03965128 -114.99080297 240.19342983 -117 241.5 C-123.04551705 245.35682692 -129.41852851 248.17936936 -136 251 C-138.68388062 252.30170577 -141.3411925 253.64727338 -144 255 C-144 256.98 -144 258.96 -144 261 C-143.360625 260.87109375 -142.72125 260.7421875 -142.0625 260.609375 C-140.37005891 260.27261376 -138.67679227 259.93967206 -136.98046875 259.62304688 C-134.649597 259.18422251 -132.32516601 258.7180529 -130 258.25 C-128.80890625 258.0334375 -128.80890625 258.0334375 -127.59375 257.8125 C-122.24335581 256.70675187 -119.65630839 255.25108458 -116 251 C-114.18974235 249.41082267 -112.35606684 247.84792608 -110.5 246.3125 C-109.5821875 245.54550781 -108.664375 244.77851563 -107.71875 243.98828125 C-105.17604125 242.12874281 -102.96766061 241.00534879 -100 240 C-99.855625 238.96875 -99.71125 237.9375 -99.5625 236.875 C-99.08339543 233.57450187 -98.56124917 230.28731659 -98 227 C-98.66 227 -99.32 227 -100 227 Z " fill="#1F1683" transform="translate(394,62)"/>
<path d="M0 0 C0.66 1.32 1.32 2.64 2 4 C1.01 4 0.02 4 -1 4 C-1.33 5.32 -1.66 6.64 -2 8 C-2.99 8 -3.98 8 -5 8 C-5 9.65 -5 11.3 -5 13 C-3.68 13.66 -2.36 14.32 -1 15 C-1 16.65 -1 18.3 -1 20 C-4.05263664 20.98120464 -5.94736336 20.98120464 -9 20 C-9 19.34 -9 18.68 -9 18 C-9.66 18 -10.32 18 -11 18 C-11 17.34 -11 16.68 -11 16 C-11.99 16 -12.98 16 -14 16 C-13.814375 16.5775 -13.62875 17.155 -13.4375 17.75 C-12.95976454 20.20692525 -13.24270636 21.64397534 -14 24 C-12.02 24.66 -10.04 25.32 -8 26 C-8.99 26.495 -8.99 26.495 -10 27 C-10.433125 27.99 -10.433125 27.99 -10.875 29 C-12 31 -12 31 -14.125 31.75 C-15.053125 31.87375 -15.053125 31.87375 -16 32 C-14.68 32.66 -13.36 33.32 -12 34 C-24.2169645 34.59114344 -33.99976801 29.96191849 -45 25 C-45.81210938 24.63648438 -46.62421875 24.27296875 -47.4609375 23.8984375 C-51.90158231 21.80571983 -55.34947735 19.28547039 -59 16 C-58.125 12.125 -58.125 12.125 -57 11 C-55.49981109 10.72640534 -53.9892952 10.50891754 -52.4765625 10.31640625 C-51.07724487 10.13331909 -51.07724487 10.13331909 -49.6496582 9.9465332 C-48.651521 9.81980225 -47.65338379 9.69307129 -46.625 9.5625 C-44.58955254 9.29911578 -42.55438987 9.03352047 -40.51953125 8.765625 C-39.60018799 8.64735352 -38.68084473 8.52908203 -37.73364258 8.40722656 C-34.89654122 7.9845879 -32.11470487 7.42289916 -29.3125 6.8125 C-25.9090568 6.10738208 -22.75910027 5.98611452 -19.30078125 6.08984375 C-18.4502417 6.11264404 -17.59970215 6.13544434 -16.72338867 6.15893555 C-15.02566164 6.21843495 -13.32862345 6.30596413 -11.6340332 6.42504883 C-7.15080672 6.669995 -7.15080672 6.669995 -3.31933594 4.64648438 C-1.74582145 2.83317733 -1.74582145 2.83317733 0 0 Z " fill="#231A84" transform="translate(124,425)"/>
<path d="M0 0 C0.66 0.33 1.32 0.66 2 1 C0 3 0 3 -3 5 C-3.33 5.99 -3.66 6.98 -4 8 C-3.01 8 -2.02 8 -1 8 C-1.66 9.32 -2.32 10.64 -3 12 C-4.32 11.67 -5.64 11.34 -7 11 C-7 11.66 -7 12.32 -7 13 C-7.639375 13.2475 -8.27875 13.495 -8.9375 13.75 C-11.18741541 14.81562433 -11.18741541 14.81562433 -11.75 17.125 C-11.8325 17.74375 -11.915 18.3625 -12 19 C-11.608125 18.484375 -11.21625 17.96875 -10.8125 17.4375 C-10.214375 16.963125 -9.61625 16.48875 -9 16 C-6.5625 16.3125 -6.5625 16.3125 -4 17 C-2.68 17 -1.36 17 0 17 C-2.52252956 19.90263675 -5.31458428 21.32588879 -8.75 23 C-9.82121094 23.52207031 -10.89242187 24.04414063 -11.99609375 24.58203125 C-15.30391994 26.14346286 -18.61789836 27.60736991 -22 29 C-23.31330414 29.56061995 -24.62581227 30.12310847 -25.9375 30.6875 C-27.4534375 31.3371875 -27.4534375 31.3371875 -29 32 C-29 33.65 -29 35.3 -29 37 C-27.68 37.33 -26.36 37.66 -25 38 C-25.33 38.33 -25.66 38.66 -26 39 C-26.763125 38.896875 -27.52625 38.79375 -28.3125 38.6875 C-31.31640221 38.72177886 -31.31640221 38.72177886 -33.3125 41.8125 C-35.23394386 44.84078821 -35.23394386 44.84078821 -35 48 C-36.98 48.495 -36.98 48.495 -39 49 C-39.495 51.475 -39.495 51.475 -40 54 C-42.475 54.495 -42.475 54.495 -45 55 C-44.67 54.34 -44.34 53.68 -44 53 C-43.34 53 -42.68 53 -42 53 C-41.773125 51.948125 -41.54625 50.89625 -41.3125 49.8125 C-40.20639469 45.8402094 -38.11370115 43.70400363 -35 41 C-35.495 39.515 -35.495 39.515 -36 38 C-38.31 38.66 -40.62 39.32 -43 40 C-43 36 -43 36 -41.609375 34.47265625 C-40.99578125 34.00730469 -40.3821875 33.54195313 -39.75 33.0625 C-36.69796515 30.62579476 -34.36658619 28.12727461 -32 25 C-31.02149805 23.97895449 -30.02019573 22.9793879 -29 22 C-28.154375 21.113125 -27.30875 20.22625 -26.4375 19.3125 C-24 17 -24 17 -22 17 C-21.7628125 16.39800781 -21.525625 15.79601562 -21.28125 15.17578125 C-19.69835373 12.48775313 -18.22117198 11.6815612 -15.5 10.1875 C-10.09255772 7.10541555 -5.05005437 3.63174123 0 0 Z " fill="#2D2489" transform="translate(280,285)"/>
<path d="M0 0 C0.66 0.99 1.32 1.98 2 3 C1.67 3.99 1.34 4.98 1 6 C3.475 6.495 3.475 6.495 6 7 C5.38125 7.28875 4.7625 7.5775 4.125 7.875 C1.86674235 8.93720042 1.86674235 8.93720042 0 11 C0 12.32 0 13.64 0 15 C1.32 15.33 2.64 15.66 4 16 C3.67 16.33 3.34 16.66 3 17 C2.236875 16.896875 1.47375 16.79375 0.6875 16.6875 C-2.31640221 16.72177886 -2.31640221 16.72177886 -4.3125 19.8125 C-6.23394386 22.84078821 -6.23394386 22.84078821 -6 26 C-7.32 26.33 -8.64 26.66 -10 27 C-10.33 28.65 -10.66 30.3 -11 32 C-13.475 32.495 -13.475 32.495 -16 33 C-15.67 32.34 -15.34 31.68 -15 31 C-14.34 31 -13.68 31 -13 31 C-12.773125 29.948125 -12.54625 28.89625 -12.3125 27.8125 C-11.20639469 23.8402094 -9.11370115 21.70400363 -6 19 C-6.33 18.01 -6.66 17.02 -7 16 C-9.31 16.66 -11.62 17.32 -14 18 C-14 14 -14 14 -12.609375 12.47265625 C-11.99578125 12.00730469 -11.3821875 11.54195313 -10.75 11.0625 C-7.69796515 8.62579476 -5.36658619 6.12727461 -3 3 C-2.01769502 1.9826127 -1.02530403 0.97403883 0 0 Z " fill="#524A98" transform="translate(251,307)"/>
<path d="M0 0 C2.31 0 4.62 0 7 0 C7.08112454 2.58396679 7.14054748 5.16537568 7.1875 7.75 C7.22520508 8.84441406 7.22520508 8.84441406 7.26367188 9.9609375 C7.30669199 13.11574564 7.17815599 15.6040978 5.875 18.5 C3.1716432 20.66268544 1.22232965 20.39665934 -2.1875 20.25 C-3.27417969 20.21390625 -4.36085938 20.1778125 -5.48046875 20.140625 C-6.72763672 20.07101562 -6.72763672 20.07101562 -8 20 C-6.92598892 17.08482708 -6.22189824 15.22189824 -4 13 C-3.28293018 11.01751285 -2.61709587 9.01584651 -2 7 C-1.67 6.01 -1.34 5.02 -1 4 C-0.65772583 2.66893378 -0.32248257 1.33599921 0 0 Z " fill="#3F378D" transform="translate(369,249)"/>
<path d="M0 0 C0.66 0.33 1.32 0.66 2 1 C1.39816251 3.02045442 0.72693904 5.02111039 0 7 C-0.99 7.495 -0.99 7.495 -2 8 C-3.25827123 9.84982472 -3.25827123 9.84982472 -4 12 C-3.67 12.99 -3.34 13.98 -3 15 C-2.96079185 16.99961564 -2.95556653 19.00049364 -3 21 C-4.98 20.67 -6.96 20.34 -9 20 C-8.34 20.66 -7.68 21.32 -7 22 C-6.10515249 30.0799466 -7.42892639 38.08852218 -9 46 C-9.33 46 -9.66 46 -10 46 C-9.99476318 45.410979 -9.98952637 44.82195801 -9.98413086 44.21508789 C-9.96310197 41.49756983 -9.95025854 38.78006899 -9.9375 36.0625 C-9.92912109 35.13630859 -9.92074219 34.21011719 -9.91210938 33.25585938 C-9.89394754 28.07973732 -10.10570505 23.07382852 -10.83227539 17.94604492 C-11.13104119 14.47957886 -10.445907 12.13279851 -9 9 C-7.29063721 7.52485279 -5.53215419 6.33268829 -3.62109375 5.1328125 C-1.6127782 3.72941127 -0.77071722 2.31215166 0 0 Z " fill="#302887" transform="translate(382,75)"/>
<path d="M0 0 C0.66 0.33 1.32 0.66 2 1 C1.34 2.98 0.68 4.96 0 7 C0.99 6.67 1.98 6.34 3 6 C2.67 7.32 2.34 8.64 2 10 C0.35 10.33 -1.3 10.66 -3 11 C-3.33 12.65 -3.66 14.3 -4 16 C-4.66 14.68 -5.32 13.36 -6 12 C-6.99 12.495 -6.99 12.495 -8 13 C-9.33333333 13.66666667 -10.66666667 14.33333333 -12 15 C-11.34 15 -10.68 15 -10 15 C-10.33 15.99 -10.66 16.98 -11 18 C-11.66 18 -12.32 18 -13 18 C-13.33 18.66 -13.66 19.32 -14 20 C-13.34 20.33 -12.68 20.66 -12 21 C-12.99 21.33 -13.98 21.66 -15 22 C-15 23.65 -15 25.3 -15 27 C-15.66 27.33 -16.32 27.66 -17 28 C-17.29802257 22.23823033 -16.86725509 19.13716538 -14 14 C-14 13.01 -14 12.02 -14 11 C-9.77793485 6.77793485 -4.86343599 3.43301364 0 0 Z " fill="#332A8B" transform="translate(299,257)"/>
<path d="M0 0 C0.33 0 0.66 0 1 0 C1.042721 1.66611905 1.04063832 3.33382885 1 5 C0.67 5.33 0.34 5.66 0 6 C-0.10597167 7.72792703 -0.18463119 9.45756106 -0.25 11.1875 C-0.69177471 16.86430507 -2.03735956 19.03735956 -6 23 C-7.06546953 26.1964086 -7.07427838 28.65747276 -7 32 C-7.33 32 -7.66 32 -8 32 C-8.268125 30.906875 -8.53625 29.81375 -8.8125 28.6875 C-9.87663739 25.38307337 -10.34654664 24.05039578 -13 22 C-12.67 21.2575 -12.34 20.515 -12 19.75 C-10.77217129 16.86116688 -10.77217129 16.86116688 -11 13 C-9.68 13 -8.36 13 -7 13 C-6.67 12.01 -6.34 11.02 -6 10 C-5.54625 9.5875 -5.0925 9.175 -4.625 8.75 C-2.22035763 6.16038514 -1.298374 3.27684866 0 0 Z " fill="#231A82" transform="translate(400,151)"/>
<path d="M0 0 C4.80029185 1.51254479 8.22122723 4.5123005 12.0703125 7.65234375 C13.0603125 8.31234375 14.0503125 8.97234375 15.0703125 9.65234375 C14.7403125 10.31234375 14.4103125 10.97234375 14.0703125 11.65234375 C9.1953125 9.90234375 9.1953125 9.90234375 8.0703125 7.65234375 C6.9978125 7.81734375 5.9253125 7.98234375 4.8203125 8.15234375 C1.0703125 8.65234375 1.0703125 8.65234375 -2.9296875 8.65234375 C-2.5996875 7.00234375 -2.2696875 5.35234375 -1.9296875 3.65234375 C-3.2496875 3.32234375 -4.5696875 2.99234375 -5.9296875 2.65234375 C-6.2803125 3.58046875 -6.6309375 4.50859375 -6.9921875 5.46484375 C-9.52887769 9.63810825 -11.4007049 10.11419871 -15.9296875 11.65234375 C-13.75938896 3.69458245 -8.33575631 -1.70953646 0 0 Z " fill="#2B2283" transform="translate(400.9296875,62.34765625)"/>
<path d="M0 0 C2.8125 0.1875 2.8125 0.1875 5 1 C1.82128949 6.18012083 -1.28582772 9.51366756 -6.625 12.4375 C-9.17406451 13.86308146 -9.17406451 13.86308146 -10.5 16.5625 C-12.3136133 19.50962161 -13.74643472 20.03272384 -17 21 C-16.505 19.515 -16.505 19.515 -16 18 C-15.01 18 -14.02 18 -13 18 C-13 16.35 -13 14.7 -13 13 C-12.01 13 -11.02 13 -10 13 C-10 11.02 -10 9.04 -10 7 C-8.9171875 6.6596875 -8.9171875 6.6596875 -7.8125 6.3125 C-4.79796183 5.12004421 -4.79796183 5.12004421 -2.5 2.3125 C-1.675 1.549375 -0.85 0.78625 0 0 Z " fill="#40388E" transform="translate(319,326)"/>
<path d="M0 0 C1.58409994 0.11487748 3.16728963 0.24234508 4.75 0.375 C5.63171875 0.44460938 6.5134375 0.51421875 7.421875 0.5859375 C9.99066382 0.99850055 11.75841015 1.71160957 14 3 C13.34 3 12.68 3 12 3 C11.7525 3.639375 11.505 4.27875 11.25 4.9375 C10 7 10 7 7.875 7.75 C6.946875 7.87375 6.946875 7.87375 6 8 C7.32 8.66 8.64 9.32 10 10 C3.93107371 10.25287193 -1.16200408 9.69832609 -7 8 C-3.34811918 6.92825237 -0.73567172 7.23588533 3 8 C2.505 7.236875 2.01 6.47375 1.5 5.6875 C0 3 0 3 0 0 Z " fill="#231A84" transform="translate(102,449)"/>
<path d="M0 0 C1.44733508 2.41222513 1.34917836 4.1101335 1.125 6.875 C-0.525 6.875 -2.175 6.875 -3.875 6.875 C-4.205 8.195 -4.535 9.515 -4.875 10.875 C-6.855 10.875 -8.835 10.875 -10.875 10.875 C-10.71 10.318125 -10.545 9.76125 -10.375 9.1875 C-9.77312972 6.84147117 -9.77312972 6.84147117 -9.9375 4.25 C-9.875 1.875 -9.875 1.875 -7.875 -0.125 C-2.62742718 -1.57645631 -2.62742718 -1.57645631 0 0 Z " fill="#2A2186" transform="translate(261.875,303.125)"/>
<path d="M0 0 C1.65 0.33 3.3 0.66 5 1 C4.26386886 2.70648581 3.52606045 4.41227972 2.77734375 6.11328125 C1.90280753 8.13311088 1.90280753 8.13311088 1.1875 10.875 C0 13 0 13 -2.9375 14 C-6 14 -6 14 -7.875 12.6875 C-9 11 -9 11 -9 9 C-7.02 8.01 -5.04 7.02 -3 6 C-3 5.34 -3 4.68 -3 4 C-2.34 4 -1.68 4 -1 4 C-0.67 2.68 -0.34 1.36 0 0 Z " fill="#1A1180" transform="translate(395,64)"/>
<path d="M0 0 C0.66 0.99 1.32 1.98 2 3 C1.67 3.99 1.34 4.98 1 6 C2.65 6.33 4.3 6.66 6 7 C5.38125 7.28875 4.7625 7.5775 4.125 7.875 C1.86674235 8.93720042 1.86674235 8.93720042 0 11 C-0.6425235 13.06874034 -0.6425235 13.06874034 -1 15 C-4 14 -4 14 -6 11 C-6.4375 8.5625 -6.4375 8.5625 -6 6 C-3.5625 3.8125 -3.5625 3.8125 -1 2 C-0.67 1.34 -0.34 0.68 0 0 Z " fill="#453D92" transform="translate(251,307)"/>
<path d="M0 0 C1.45607397 4.4561727 0.00954181 6.83206143 -2 11 C-2.28875 11.721875 -2.5775 12.44375 -2.875 13.1875 C-4.47855201 15.77100047 -6.52826559 17.26978591 -9 19 C-9.66 19 -10.32 19 -11 19 C-9.41467191 14.44435939 -7.00996919 10.68524231 -4.375 6.6875 C-3.95476562 6.04232422 -3.53453125 5.39714844 -3.1015625 4.73242188 C-2.07161759 3.15239276 -1.03634372 1.57583953 0 0 Z " fill="#615AA2" transform="translate(183,385)"/>
<path d="M0 0 C0.28875 0.61875 0.5775 1.2375 0.875 1.875 C1.93720042 4.13325765 1.93720042 4.13325765 4 6 C4.89484751 14.0799466 3.57107361 22.08852218 2 30 C1.67 30 1.34 30 1 30 C1.00523682 29.410979 1.01047363 28.82195801 1.01586914 28.21508789 C1.03689803 25.49756983 1.04974146 22.78006899 1.0625 20.0625 C1.07087891 19.13630859 1.07925781 18.21011719 1.08789062 17.25585938 C1.10837786 11.41699697 0.75429787 5.79086947 0 0 Z " fill="#7D77B1" transform="translate(371,91)"/>
<path d="M0 0 C1.125 1.76171875 1.125 1.76171875 2 4 C1.25 5.89453125 1.25 5.89453125 0 7.8125 C-1.88003314 11.18402609 -2.06825406 11.66441756 -1.25 15.6875 C-0.63125 17.3271875 -0.63125 17.3271875 0 19 C0.125 21.9375 0.125 21.9375 0 24 C-1.32 23.67 -2.64 23.34 -4 23 C-4 21 -4 19 -4 17 C-4.04125 15.96875 -4.0825 14.9375 -4.125 13.875 C-3.99321747 9.78974169 -3.2582216 6.85330365 -2 3 C-2.99 2.67 -3.98 2.34 -5 2 C-3.35 1.34 -1.7 0.68 0 0 Z " fill="#6861A8" transform="translate(406,112)"/>
<path d="M0 0 C-0.66 1.65 -1.32 3.3 -2 5 C-4.64 5.33 -7.28 5.66 -10 6 C-10.33 5.01 -10.66 4.02 -11 3 C-11.99 3 -12.98 3 -14 3 C-14.66 4.32 -15.32 5.64 -16 7 C-16.66 6.67 -17.32 6.34 -18 6 C-16.3125 3.5 -16.3125 3.5 -14 1 C-11.5625 0.8125 -11.5625 0.8125 -9 1 C-8.154375 0.649375 -7.30875 0.29875 -6.4375 -0.0625 C-3.7365474 -1.10132792 -2.66172856 -0.98582539 0 0 Z " fill="#1A1179" transform="translate(263,322)"/>
<path d="M0 0 C1.46726798 3.81489674 0.43336419 6.29011622 -1 10 C2.04134491 8.33075929 2.04134491 8.33075929 3 6 C3.99 6 4.98 6 6 6 C5.65120368 9.25543229 4.97866739 10.01873107 2.4375 12.25 C1.633125 12.8275 0.82875 13.405 0 14 C-2.475 13.01 -2.475 13.01 -5 12 C-4.67 11.443125 -4.34 10.88625 -4 10.3125 C-2.8690399 7.69715478 -2.84337026 5.8193354 -3 3 C-2.34 3 -1.68 3 -1 3 C-0.67 2.01 -0.34 1.02 0 0 Z " fill="#50499A" transform="translate(321,232)"/>
<path d="M0 0 C0.33 0 0.66 0 1 0 C1.042721 1.66611905 1.04063832 3.33382885 1 5 C0.67 5.33 0.34 5.66 0 6 C-0.28318854 8.84087552 -0.44850213 11.68165215 -0.62109375 14.53125 C-0.74613281 15.3459375 -0.87117188 16.160625 -1 17 C-1.66 17.33 -2.32 17.66 -3 18 C-3 17.34 -3 16.68 -3 16 C-3.99 16 -4.98 16 -6 16 C-6.1875 13.1875 -6.1875 13.1875 -6 10 C-4.6875 8.5625 -4.6875 8.5625 -3 7 C-1.85538478 4.71076956 -0.94433095 2.38331143 0 0 Z " fill="#5A549D" transform="translate(400,151)"/>
<path d="M0 0 C0.56847656 0.15339844 1.13695312 0.30679688 1.72265625 0.46484375 C1.72265625 0.79484375 1.72265625 1.12484375 1.72265625 1.46484375 C0.46453125 1.50609375 -0.79359375 1.54734375 -2.08984375 1.58984375 C-4.30483292 1.78402793 -4.30483292 1.78402793 -6.27734375 2.46484375 C-7.34509599 4.42950788 -8.3428784 6.43339734 -9.27734375 8.46484375 C-11.55994015 9.86951846 -13.71607943 10.59498039 -16.27734375 11.46484375 C-13.99662335 3.1022023 -8.56080992 -1.72931219 0 0 Z " fill="#615AA0" transform="translate(401.27734375,62.53515625)"/>
<path d="M0 0 C0.66 1.32 1.32 2.64 2 4 C1.01 4 0.02 4 -1 4 C-1.33 5.32 -1.66 6.64 -2 8 C-11.24 8 -20.48 8 -30 8 C-30 7.67 -30 7.34 -30 7 C-26.40508427 6.22256294 -23.08965928 5.96041177 -19.43359375 6.11328125 C-18.2105957 6.1587207 -18.2105957 6.1587207 -16.96289062 6.20507812 C-15.27445773 6.27689855 -13.58674393 6.36816918 -11.90039062 6.47851562 C-7.27025588 6.69819777 -7.27025588 6.69819777 -3.29736328 4.64208984 C-1.72669857 2.83128643 -1.72669857 2.83128643 0 0 Z " fill="#8A84BD" transform="translate(124,425)"/>
<path d="M0 0 C0 0.99 0 1.98 0 3 C-2.6875 5 -2.6875 5 -6 7 C-7.36125 7.8971875 -7.36125 7.8971875 -8.75 8.8125 C-9.4925 9.204375 -10.235 9.59625 -11 10 C-13 9 -13 9 -14 6 C-12.68 5.67 -11.36 5.34 -10 5 C-10 4.34 -10 3.68 -10 3 C-7.69 3 -5.38 3 -3 3 C-3 2.34 -3 1.68 -3 1 C-2.01 0.67 -1.02 0.34 0 0 Z " fill="#403790" transform="translate(363,290)"/>
<path d="M0 0 C2.31 0 4.62 0 7 0 C6.67 1.65 6.34 3.3 6 5 C5.34 5 4.68 5 4 5 C3.525625 5.825 3.05125 6.65 2.5625 7.5 C2.046875 8.325 1.53125 9.15 1 10 C0.01 10 -0.98 10 -2 10 C-2.33 10.99 -2.66 11.98 -3 13 C-2.51421457 9.87709365 -2.0013988 7.00419641 -1 4 C-0.65772583 2.66893378 -0.32248257 1.33599921 0 0 Z " fill="#413898" transform="translate(369,249)"/>
<path d="M0 0 C0.66 0.99 1.32 1.98 2 3 C1.1875 5.375 1.1875 5.375 0 8 C-0.36871088 9.65919896 -0.71281674 11.3247643 -1 13 C-4 12 -4 12 -6 11 C-6.33 13.64 -6.66 16.28 -7 19 C-7.33 19 -7.66 19 -8 19 C-8.3669579 12.51707705 -8.3669579 12.51707705 -6.625 10.0625 C-5 9 -5 9 -3 9 C-2.814375 7.88625 -2.814375 7.88625 -2.625 6.75 C-2.04513299 4.19858515 -1.26291261 2.2732427 0 0 Z " fill="#6F69AC" transform="translate(332,207)"/>
<path d="M0 0 C0.66 0.33 1.32 0.66 2 1 C2 1.33 2 1.66 2 2 C2.99 2 3.98 2 5 2 C4 4 3 6 2 8 C-0.31 8 -2.62 8 -5 8 C-3.8141763 4.62496331 -2.72426311 2.35277269 0 0 Z " fill="#3C308F" transform="translate(158,412)"/>
<path d="M0 0 C1.65 0.33 3.3 0.66 5 1 C4.34 2.65 3.68 4.3 3 6 C3.66 6 4.32 6 5 6 C5.1875 8.375 5.1875 8.375 5 11 C4.01 11.66 3.02 12.32 2 13 C2 12.34 2 11.68 2 11 C1.01 10.67 0.02 10.34 -1 10 C-0.649375 9.278125 -0.29875 8.55625 0.0625 7.8125 C1.10409017 4.6877295 0.89096572 3.11838004 0 0 Z " fill="#574E9B" transform="translate(323,312)"/>
<path d="M0 0 C2.31 0.66 4.62 1.32 7 2 C4.10724268 4.89275732 0.89947022 4.64083827 -3 5 C-4.36125 5.13921875 -4.36125 5.13921875 -5.75 5.28125 C-8.16600443 5.52834136 -10.58258582 5.76717527 -13 6 C-13 5.01 -13 4.02 -13 3 C-9.04 3 -5.08 3 -1 3 C-0.67 2.01 -0.34 1.02 0 0 Z " fill="#6D67AB" transform="translate(291,348)"/>
<path d="M0 0 C0 0.66 0 1.32 0 2 C-4.455 2.495 -4.455 2.495 -9 3 C-9 3.99 -9 4.98 -9 6 C-10.65 5.67 -12.3 5.34 -14 5 C-13.67 4.34 -13.34 3.68 -13 3 C-14.32 2.34 -15.64 1.68 -17 1 C-11.27959989 0.1679418 -5.77759884 -0.12036664 0 0 Z " fill="#8680B9" transform="translate(142,423)"/>
<path d="M0 0 C1 3 1 3 1 5 C1.31478446 6.33783393 1.64587656 7.67203709 2 9 C1.01 8.67 0.02 8.34 -1 8 C-4.15020361 8.88319294 -4.15020361 8.88319294 -7 10 C-7 6 -7 6 -5.46875 4.296875 C-4.8190625 3.78640625 -4.169375 3.2759375 -3.5 2.75 C-2.8503125 2.22921875 -2.200625 1.7084375 -1.53125 1.171875 C-0.77328125 0.59179688 -0.77328125 0.59179688 0 0 Z " fill="#8580AF" transform="translate(244,315)"/>
<path d="M0 0 C0.33 0.66 0.66 1.32 1 2 C0.67 2.99 0.34 3.98 0 5 C0.66 5 1.32 5 2 5 C1.67 5.99 1.34 6.98 1 8 C0.34 8 -0.32 8 -1 8 C-1.33 8.66 -1.66 9.32 -2 10 C-1.34 10.33 -0.68 10.66 0 11 C-0.99 11.33 -1.98 11.66 -3 12 C-3 13.65 -3 15.3 -3 17 C-3.66 17.33 -4.32 17.66 -5 18 C-5.29802257 12.23823033 -4.86725509 9.13716538 -2 4 C-2 3.01 -2 2.02 -2 1 C-1.34 0.67 -0.68 0.34 0 0 Z " fill="#7B75B1" transform="translate(287,267)"/>
<path d="M0 0 C-1.484375 1.984375 -1.484375 1.984375 -4 4 C-6.89449949 4.2906124 -9.37949935 4.38186045 -12.25 4.25 C-13.36761719 4.22292969 -13.36761719 4.22292969 -14.5078125 4.1953125 C-16.33909701 4.14835649 -18.16971649 4.07661652 -20 4 C-16.56651236 1.71100824 -13.40796758 1.07504013 -9.4375 0.3125 C-8.40979492 0.09883789 -8.40979492 0.09883789 -7.36132812 -0.11914062 C-2.2533867 -1.12669335 -2.2533867 -1.12669335 0 0 Z " fill="#726CAB" transform="translate(275,318)"/>
<path d="M0 0 C0.33 0.66 0.66 1.32 1 2 C3.02463255 2.65213292 3.02463255 2.65213292 5 3 C4.34 4.32 3.68 5.64 3 7 C2.2575 6.773125 1.515 6.54625 0.75 6.3125 C-2.05914993 5.70523302 -2.05914993 5.70523302 -4.3125 7.4375 C-4.869375 7.953125 -5.42625 8.46875 -6 9 C-6.33 8.34 -6.66 7.68 -7 7 C-6.34 7 -5.68 7 -5 7 C-4.67 5.68 -4.34 4.36 -4 3 C-2.68 2.67 -1.36 2.34 0 2 C0 1.34 0 0.68 0 0 Z " fill="#1A117E" transform="translate(273,296)"/>
<path d="M0 0 C0.33 0.66 0.66 1.32 1 2 C-0.93694542 5.80471422 -2.70921407 9.20283196 -6 12 C-6.8125 9.3125 -6.8125 9.3125 -7 6 C-4.84614331 3.38044456 -3.04053406 1.52026703 0 0 Z " fill="#564F9D" transform="translate(347,263)"/>
<path d="M0 0 C0.66 0.33 1.32 0.66 2 1 C1.39816251 3.02045442 0.72693904 5.02111039 0 7 C-3.2830098 8.6415049 -6.42545033 7.51888624 -10 7 C-7.63707344 4.47411298 -6.33537489 3.11179163 -3 2 C-3 2.66 -3 3.32 -3 4 C-2.01 4 -1.02 4 0 4 C0 2.68 0 1.36 0 0 Z " fill="#3C3492" transform="translate(316,245)"/>
<path d="M0 0 C3 3 3 3 3.1875 5.4375 C3.0946875 6.7059375 3.0946875 6.7059375 3 8 C3 9.32 3 10.64 3 12 C2.3747292 14.34476551 1.7136591 16.68060793 1 19 C0.67 19 0.34 19 0 19 C0 12.73 0 6.46 0 0 Z " fill="#8380B4" transform="translate(408,84)"/>
<path d="M0 0 C1.98 0.66 3.96 1.32 6 2 C6 2.66 6 3.32 6 4 C5.34 4.66 4.68 5.32 4 6 C4.33 6.99 4.66 7.98 5 9 C1.75728494 8.4409112 0.06942576 7.5867822 -2 5 C-2 4.34 -2 3.68 -2 3 C-1.34 3 -0.68 3 0 3 C0 2.01 0 1.02 0 0 Z " fill="#1A0F83" transform="translate(236,377)"/>
<path d="M0 0 C-2.29629994 1.14814997 -4.07698086 1.30769809 -6.625 1.5625 C-7.85089844 1.68818359 -7.85089844 1.68818359 -9.1015625 1.81640625 C-10.04128906 1.90728516 -10.04128906 1.90728516 -11 2 C-10.67 3.98 -10.34 5.96 -10 8 C-11.9375 7.25 -11.9375 7.25 -14 6 C-14.875 4 -14.875 4 -15 2 C-12.54593984 -0.45406016 -11.4528512 -0.38381215 -8.0625 -0.6875 C-7.18722656 -0.77386719 -6.31195313 -0.86023438 -5.41015625 -0.94921875 C-3 -1 -3 -1 0 0 Z " fill="#7872AE" transform="translate(80,436)"/>
<path d="M0 0 C-1 3 -1 3 -2.9375 4.8125 C-5.36536105 7.38750415 -6.07808265 9.61963637 -7 13 C-7.33 13 -7.66 13 -8 13 C-8.33 10.03 -8.66 7.06 -9 4 C-8.34 3.67 -7.68 3.34 -7 3 C-6.34 3.33 -5.68 3.66 -5 4 C-5.33 3.01 -5.66 2.02 -6 1 C-3.92446352 0.4465236 -2.15634036 0 0 0 Z " fill="#554C9D" transform="translate(253,368)"/>
<path d="M0 0 C0.99 0.33 1.98 0.66 3 1 C2.01 2.2684375 2.01 2.2684375 1 3.5625 C-1.25272405 7.43436947 -1.35177696 9.60278797 -1 14 C-1.33 14 -1.66 14 -2 14 C-2.28875 12.88625 -2.5775 11.7725 -2.875 10.625 C-3.69241329 6.99708908 -3.69241329 6.99708908 -6 5 C-4.625 3 -4.625 3 -3 1 C-2.34 1 -1.68 1 -1 1 C-0.67 0.67 -0.34 0.34 0 0 Z " fill="#6E69AB" transform="translate(394,169)"/>
<path d="M0 0 C0.33 0.66 0.66 1.32 1 2 C1.99 2 2.98 2 4 2 C4 2.99 4 3.98 4 5 C5.32 5.66 6.64 6.32 8 7 C1.93107371 7.25287193 -3.16200408 6.69832609 -9 5 C-5.34811918 3.92825237 -2.73567172 4.23588533 1 5 C0.67 3.35 0.34 1.7 0 0 Z " fill="#6E68AD" transform="translate(104,452)"/>
<path d="M0 0 C0 0.66 0 1.32 0 2 C1.98 1.67 3.96 1.34 6 1 C6 2.65 6 4.3 6 6 C5.67 5.34 5.34 4.68 5 4 C3.3603125 4.309375 3.3603125 4.309375 1.6875 4.625 C-2 5 -2 5 -5 3 C-5 2.34 -5 1.68 -5 1 C-2 0 -2 0 0 0 Z " fill="#4B429B" transform="translate(361,242)"/>
<path d="M0 0 C1.5 1.1875 1.5 1.1875 3 3 C3.1875 5.6875 3.1875 5.6875 3 8 C1.35 7.67 -0.3 7.34 -2 7 C-2 6.01 -2 5.02 -2 4 C-2.99 3.34 -3.98 2.68 -5 2 C-3.35 1.34 -1.7 0.68 0 0 Z " fill="#19107A" transform="translate(260,302)"/>
<path d="M0 0 C0.99 0.33 1.98 0.66 3 1 C2.42655063 3.86724686 2.1385485 4.8614515 0 7 C-2.5 7.3125 -2.5 7.3125 -5 7 C-5.66 6.01 -6.32 5.02 -7 4 C-4.525 4.495 -4.525 4.495 -2 5 C-2.33 4.01 -2.66 3.02 -3 2 C-2.01 1.34 -1.02 0.68 0 0 Z " fill="#635AA1" transform="translate(242,380)"/>
<path d="M0 0 C0.66 0.33 1.32 0.66 2 1 C0 3 0 3 -3 5 C-3.33 5.99 -3.66 6.98 -4 8 C-3.01 8.33 -2.02 8.66 -1 9 C-3.78823655 10.0326802 -4.8677274 10.04509293 -7.75 9.0625 C-8.4925 8.711875 -9.235 8.36125 -10 8 C-6.66666667 5.33333333 -3.33333333 2.66666667 0 0 Z " fill="#6960A8" transform="translate(280,285)"/>
<path d="M0 0 C1.32 0.33 2.64 0.66 4 1 C1.22237877 4.60062011 -1.73991357 7.83047153 -5 11 C-5.66 10.67 -6.32 10.34 -7 10 C-6.67 9.34 -6.34 8.68 -6 8 C-5.01 8 -4.02 8 -3 8 C-3 6.35 -3 4.7 -3 3 C-2.01 3 -1.02 3 0 3 C0 2.01 0 1.02 0 0 Z " fill="#6F69A7" transform="translate(309,336)"/>
<path d="M0 0 C0.66 0 1.32 0 2 0 C1.59791618 5.62917348 -0.28930302 8.00386479 -4 12 C-4.66 11.34 -5.32 10.68 -6 10 C-5.01 9.67 -4.02 9.34 -3 9 C-2.23397184 7.15808143 -2.23397184 7.15808143 -1.875 5 C-1.07623318 1.07623318 -1.07623318 1.07623318 0 0 Z " fill="#504892" transform="translate(390,224)"/>
<path d="M0 0 C2.31 0 4.62 0 7 0 C6.071875 0.61875 6.071875 0.61875 5.125 1.25 C2.89320739 2.83369354 2.89320739 2.83369354 2 5.125 C1 7 1 7 -1.125 7.75 C-2.053125 7.87375 -2.053125 7.87375 -3 8 C-1.125 2.25 -1.125 2.25 0 0 Z " fill="#1B1074" transform="translate(125,425)"/>
<path d="M0 0 C1.32 0 2.64 0 4 0 C3.649375 0.9075 3.29875 1.815 2.9375 2.75 C2.03531221 5.87758436 1.86618493 7.05208081 3 10 C2.01 10.66 1.02 11.32 0 12 C-0.33 9.36 -0.66 6.72 -1 4 C-0.34 4 0.32 4 1 4 C0.67 2.68 0.34 1.36 0 0 Z " fill="#6D69A7" transform="translate(205,409)"/>
<path d="M0 0 C1.44926837 4.45552099 0.1032744 6.86856813 -2 11 C-3.6875 12.9375 -3.6875 12.9375 -5 14 C-5.46733615 9.42010577 -5.17261016 6.75145487 -2.5 3.0625 C-1.675 2.051875 -0.85 1.04125 0 0 Z " fill="#4F4894" transform="translate(183,385)"/>
<path d="M0 0 C-0.33 0.66 -0.66 1.32 -1 2 C-3.64 1.67 -6.28 1.34 -9 1 C-9 0.34 -9 -0.32 -9 -1 C-5.23375329 -2.25541557 -3.62811066 -1.37061958 0 0 Z M-10.75 0.3125 C-9.88375 0.6528125 -9.88375 0.6528125 -9 1 C-9 1.66 -9 2.32 -9 3 C-11.64 3 -14.28 3 -17 3 C-13.55384615 -0.07692308 -13.55384615 -0.07692308 -10.75 0.3125 Z " fill="#191076" transform="translate(299,348)"/>
<path d="M0 0 C0.66 0.99 1.32 1.98 2 3 C1.67 3.99 1.34 4.98 1 6 C2.65 6.33 4.3 6.66 6 7 C3.66785852 8.20628008 1.50357861 9.1654738 -1 10 C-1.185625 9.071875 -1.185625 9.071875 -1.375 8.125 C-1.87197356 5.80879168 -1.87197356 5.80879168 -4 4 C-2.68 2.68 -1.36 1.36 0 0 Z " fill="#665FA4" transform="translate(251,307)"/>
<path d="M0 0 C1.32 0.66 2.64 1.32 4 2 C3.01 3.98 2.02 5.96 1 8 C0.01 8 -0.98 8 -2 8 C-2.33 7.01 -2.66 6.02 -3 5 C-2.01 5 -1.02 5 0 5 C0 3.35 0 1.7 0 0 Z " fill="#3E3591" transform="translate(300,341)"/>
<path d="M0 0 C0.763125 0.20625 1.52625 0.4125 2.3125 0.625 C0.3325 3.595 0.3325 3.595 -1.6875 6.625 C-2.0175 5.965 -2.3475 5.305 -2.6875 4.625 C-3.3475 4.625 -4.0075 4.625 -4.6875 4.625 C-5.0175 3.635 -5.3475 2.645 -5.6875 1.625 C-2.6875 -0.375 -2.6875 -0.375 0 0 Z " fill="#4E479B" transform="translate(321.6875,326.375)"/>
<path d="M0 0 C2.64 0 5.28 0 8 0 C7.67 0.66 7.34 1.32 7 2 C6.34 2 5.68 2 5 2 C5 2.66 5 3.32 5 4 C4.01 4.33 3.02 4.66 2 5 C1.01 4.34 0.02 3.68 -1 3 C-0.67 2.01 -0.34 1.02 0 0 Z " fill="#1A0F79" transform="translate(69,437)"/>
<path d="M0 0 C0.99 0.33 1.98 0.66 3 1 C2.236875 1.9075 1.47375 2.815 0.6875 3.75 C-1.28483107 6.114556 -3.18262034 8.51305942 -5 11 C-5.33 9.02 -5.66 7.04 -6 5 C-5.01 5 -4.02 5 -3 5 C-2.87625 4.360625 -2.7525 3.72125 -2.625 3.0625 C-2.41875 2.381875 -2.2125 1.70125 -2 1 C-1.34 0.67 -0.68 0.34 0 0 Z " fill="#544E98" transform="translate(382,236)"/>
<path d="M0 0 C1.65 0 3.3 0 5 0 C2.13309174 3.29163541 0.31824183 4.43181029 -4 5 C-4.99 5.495 -4.99 5.495 -6 6 C-5.67 4.35 -5.34 2.7 -5 1 C-3.35 1.33 -1.7 1.66 0 2 C0 1.34 0 0.68 0 0 Z " fill="#60599F" transform="translate(263,308)"/>
<path d="M0 0 C0.66 0.33 1.32 0.66 2 1 C1 4 1 4 -1.3125 5.75 C-4 7 -4 7 -8 6 C-5.36 4.02 -2.72 2.04 0 0 Z " fill="#6862A3" transform="translate(299,257)"/>
<path d="M0 0 C0.33 0.66 0.66 1.32 1 2 C1.99 2.33 2.98 2.66 4 3 C3.67 4.65 3.34 6.3 3 8 C2.01 8 1.02 8 0 8 C0 7.34 0 6.68 0 6 C0.66 6 1.32 6 2 6 C1.34 5.34 0.68 4.68 0 4 C-2.10820797 4.3185177 -2.10820797 4.3185177 -4 5 C-2.68 3.35 -1.36 1.7 0 0 Z " fill="#4B439B" transform="translate(305,252)"/>
<path d="M0 0 C2.0625 0.4375 2.0625 0.4375 4 1 C3.67 2.32 3.34 3.64 3 5 C3.33 4.67 3.66 4.34 4 4 C4.66 4 5.32 4 6 4 C5.34 5.32 4.68 6.64 4 8 C2.68 7.67 1.36 7.34 0 7 C0.66 5.35 1.32 3.7 2 2 C1.01 1.67 0.02 1.34 -1 1 C-0.67 0.67 -0.34 0.34 0 0 Z " fill="#281D8C" transform="translate(397,71)"/>
<path d="M0 0 C0.66 0 1.32 0 2 0 C2 0.66 2 1.32 2 2 C2.99 2.33 3.98 2.66 5 3 C4.21625 3.45375 3.4325 3.9075 2.625 4.375 C-0.03698031 5.88428742 -0.03698031 5.88428742 -2 8 C-2 7.34 -2 6.68 -2 6 C-2.66 6 -3.32 6 -4 6 C-3.67 5.01 -3.34 4.02 -3 3 C-2.67 3.33 -2.34 3.66 -2 4 C-1.34 2.68 -0.68 1.36 0 0 Z " fill="#5D53A1" transform="translate(214,381)"/>
<path d="M0 0 C1.32 0 2.64 0 4 0 C4.33 0.66 4.66 1.32 5 2 C7.52733235 2.65555119 7.52733235 2.65555119 10 3 C10 3.33 10 3.66 10 4 C5.545 4.495 5.545 4.495 1 5 C0.67 3.35 0.34 1.7 0 0 Z " fill="#1A0F76" transform="translate(220,376)"/>
<path d="M0 0 C0.33 0 0.66 0 1 0 C1.05437607 1.58294782 1.09296271 3.16644256 1.125 4.75 C1.14820313 5.63171875 1.17140625 6.5134375 1.1953125 7.421875 C0.99139502 10.1135858 0.36551721 11.69904974 -1 14 C-2.59789351 9.04653013 -1.28306814 4.86717585 0 0 Z " fill="#736CAF" transform="translate(391,184)"/>
<path d="M0 0 C1.57035335 2.49409061 2.0274945 3.70443416 1.75 6.6875 C1.5025 7.450625 1.255 8.21375 1 9 C0.01 9.495 0.01 9.495 -1 10 C-1.66 8.35 -2.32 6.7 -3 5 C-2.01 4.67 -1.02 4.34 0 4 C0 2.68 0 1.36 0 0 Z " fill="#190F7D" transform="translate(382,78)"/>
<path d="M0 0 C0.66 1.32 1.32 2.64 2 4 C0.125 4.625 0.125 4.625 -2 5 C-2.66 4.34 -3.32 3.68 -4 3 C-4.33 5.64 -4.66 8.28 -5 11 C-5.33 11 -5.66 11 -6 11 C-6.125 4.25 -6.125 4.25 -5 2 C-3.35 2 -1.7 2 0 2 C0 1.34 0 0.68 0 0 Z " fill="#6159AA" transform="translate(330,215)"/>
<path d="M0 0 C1 2 1 2 0.75 4.0625 C0.5025 4.701875 0.255 5.34125 0 6 C-0.99 6.33 -1.98 6.66 -3 7 C-3.99 8.485 -3.99 8.485 -5 10 C-5.66 8.68 -6.32 7.36 -7 6 C-6.21625 5.566875 -5.4325 5.13375 -4.625 4.6875 C-1.78301625 3.10779753 -1.78301625 3.10779753 0 0 Z " fill="#7E79B0" transform="translate(363,136)"/>
<path d="M0 0 C0.99 0.33 1.98 0.66 3 1 C2.67 2.32 2.34 3.64 2 5 C0.35 5.33 -1.3 5.66 -3 6 C-1.125 1.125 -1.125 1.125 0 0 Z " fill="#443C8D" transform="translate(277,313)"/>
<path d="M0 0 C0.33 0.99 0.66 1.98 1 3 C-0.4375 5.1875 -0.4375 5.1875 -2 7 C-1.34 7.33 -0.68 7.66 0 8 C-0.99 8 -1.98 8 -3 8 C-3.33 6.02 -3.66 4.04 -4 2 C-2.68 1.34 -1.36 0.68 0 0 Z M-5 4 C-4.67 4.66 -4.34 5.32 -4 6 C-4.66 5.67 -5.32 5.34 -6 5 C-5.67 4.67 -5.34 4.34 -5 4 Z " fill="#1C1375" transform="translate(351,291)"/>
<path d="M0 0 C1 2 1 2 0.375 4.5 C-1 7 -1 7 -3.625 8.3125 C-4.40875 8.539375 -5.1925 8.76625 -6 9 C-4.47291037 5.56404834 -2.40072955 2.88087546 0 0 Z " fill="#6C62A8" transform="translate(346,178)"/>
<path d="M0 0 C0.66 0.33 1.32 0.66 2 1 C1.34 2.98 0.68 4.96 0 7 C-2.31 7.33 -4.62 7.66 -7 8 C-6.21625 7.4225 -5.4325 6.845 -4.625 6.25 C-2.19952756 4.17102363 -1.14305583 2.90959667 0 0 Z " fill="#7B76AF" transform="translate(382,75)"/>
<path d="M0 0 C3.1875 0.875 3.1875 0.875 6 2 C4.625 3.5 4.625 3.5 3 5 C2.34 5 1.68 5 1 5 C1 4.34 1 3.68 1 3 C-0.32 2.67 -1.64 2.34 -3 2 C-2.01 1.34 -1.02 0.68 0 0 Z " fill="#3E368C" transform="translate(128,454)"/>
<path d="M0 0 C0.185625 0.9590625 0.185625 0.9590625 0.375 1.9375 C0.684375 2.9584375 0.684375 2.9584375 1 4 C1.66 4.33 2.32 4.66 3 5 C3 5.99 3 6.98 3 8 C2.01 8 1.02 8 0 8 C0 7.34 0 6.68 0 6 C-0.66 6 -1.32 6 -2 6 C-1.125 1.125 -1.125 1.125 0 0 Z " fill="#191078" transform="translate(186,383)"/>
<path d="M0 0 C0 0.99 0 1.98 0 3 C-2.31 4.32 -4.62 5.64 -7 7 C-7.33 5.68 -7.66 4.36 -8 3 C-6.35 3 -4.7 3 -3 3 C-3 2.34 -3 1.68 -3 1 C-2.01 0.67 -1.02 0.34 0 0 Z " fill="#6D65A6" transform="translate(363,290)"/>
<path d="M0 0 C1.98 0.495 1.98 0.495 4 1 C2.87548273 3.9719385 1.77706209 6.33440687 0 9 C-1.125 3.375 -1.125 3.375 0 0 Z " fill="#5F57A2" transform="translate(348,254)"/>
<path d="M0 0 C1.36207958 2.72415916 0.86166193 4.12779357 0 7 C-0.99 7.66 -1.98 8.32 -3 9 C-3.36923077 3.46153846 -3.36923077 3.46153846 -1.5 1.125 C-1.005 0.75375 -0.51 0.3825 0 0 Z " fill="#1C1176" transform="translate(336,204)"/>
<path d="M0 0 C0.33 0 0.66 0 1 0 C1.08096803 1.45742463 1.13917774 2.91612807 1.1875 4.375 C1.22230469 5.18710938 1.25710938 5.99921875 1.29296875 6.8359375 C1.19628906 7.55007812 1.09960938 8.26421875 1 9 C0.01 9.66 -0.98 10.32 -2 11 C-2 10.34 -2 9.68 -2 9 C-2.66 9 -3.32 9 -4 9 C-3.67 8.01 -3.34 7.02 -3 6 C-2.34 6.33 -1.68 6.66 -1 7 C-0.67 4.69 -0.34 2.38 0 0 Z " fill="#726DB1" transform="translate(402,139)"/>
<path d="M0 0 C3.625 -0.1875 3.625 -0.1875 7 0 C7.33 0.66 7.66 1.32 8 2 C4.7 2.33 1.4 2.66 -2 3 C-1.34 2.01 -0.68 1.02 0 0 Z " fill="#6E69A6" transform="translate(142,451)"/>
<path d="M0 0 C1.32 0 2.64 0 4 0 C4 0.66 4 1.32 4 2 C5.32 2.33 6.64 2.66 8 3 C4.7169902 4.6415049 1.57454967 3.51888624 -2 3 C-1.34 2.01 -0.68 1.02 0 0 Z " fill="#423C8D" transform="translate(308,249)"/>
<path d="M0 0 C2 3 2 3 1.75 6.5625 C1 10 1 10 -1 12 C-1.33 10.35 -1.66 8.7 -2 7 C-1.01 7 -0.02 7 1 7 C0.67 4.69 0.34 2.38 0 0 Z " fill="#7B74AE" transform="translate(393,212)"/>
<path d="M0 0 C0.66 1.32 1.32 2.64 2 4 C1.01 4.99 0.02 5.98 -1 7 C-1.103125 6.360625 -1.20625 5.72125 -1.3125 5.0625 C-1.539375 4.381875 -1.76625 3.70125 -2 3 C-2.99 2.67 -3.98 2.34 -5 2 C-3.35 1.34 -1.7 0.68 0 0 Z " fill="#5952A1" transform="translate(406,112)"/>
<path d="M0 0 C0.66 0.33 1.32 0.66 2 1 C1.67 1.99 1.34 2.98 1 4 C-0.9375 4.8125 -0.9375 4.8125 -3 5 C-3.66 4.34 -4.32 3.68 -5 3 C-2.625 1.4375 -2.625 1.4375 0 0 Z " fill="#5F589F" transform="translate(205,363)"/>
<path d="M0 0 C0.66 0.66 1.32 1.32 2 2 C1.625 4.125 1.625 4.125 1 6 C-0.65 6.33 -2.3 6.66 -4 7 C-3.67 6.34 -3.34 5.68 -3 5 C-2.34 5 -1.68 5 -1 5 C-0.67 3.35 -0.34 1.7 0 0 Z " fill="#6C67A8" transform="translate(239,333)"/>
<path d="M0 0 C0.99 0.33 1.98 0.66 3 1 C3.33 1.99 3.66 2.98 4 4 C3.01 4.33 2.02 4.66 1 5 C0.01 4.34 -0.98 3.68 -2 3 C-1.34 2.01 -0.68 1.02 0 0 Z " fill="#1A1077" transform="translate(348,177)"/>
<path d="M0 0 C0.66 0 1.32 0 2 0 C1.67 1.65 1.34 3.3 1 5 C-0.65 4.67 -2.3 4.34 -4 4 C-3.34 3.01 -2.68 2.02 -2 1 C-1.67 1.33 -1.34 1.66 -1 2 C-0.67 1.34 -0.34 0.68 0 0 Z " fill="#19107A" transform="translate(396,155)"/>
<path d="M0 0 C1.65 0 3.3 0 5 0 C4.67 0.99 4.34 1.98 4 3 C1.9375 3.6875 1.9375 3.6875 0 4 C0 2.68 0 1.36 0 0 Z " fill="#1A1374" transform="translate(404,82)"/>
<path d="M0 0 C1.32 1.32 2.64 2.64 4 4 C3.01 4.33 2.02 4.66 1 5 C-0.32 3.68 -1.64 2.36 -3 1 C-2.01 0.67 -1.02 0.34 0 0 Z " fill="#1B1071" transform="translate(237,381)"/>
<path d="M0 0 C0.66 0.33 1.32 0.66 2 1 C1.67 1.99 1.34 2.98 1 4 C0.34 4 -0.32 4 -1 4 C-1 4.66 -1 5.32 -1 6 C-2.32 5.67 -3.64 5.34 -5 5 C-4.34 5 -3.68 5 -3 5 C-2.5359375 4.0409375 -2.5359375 4.0409375 -2.0625 3.0625 C-1 1 -1 1 0 0 Z " fill="#7670AE" transform="translate(261,297)"/>
<path d="M0 0 C0.66 0.33 1.32 0.66 2 1 C2 1.66 2 2.32 2 3 C1.01 3 0.02 3 -1 3 C-1 4.32 -1 5.64 -1 7 C-1.99 7 -2.98 7 -4 7 C-2.92598892 4.08482708 -2.22189824 2.22189824 0 0 Z " fill="#ACA8CB" transform="translate(365,262)"/>
<path d="M0 0 C0.66 0.33 1.32 0.66 2 1 C1.1875 3.9375 1.1875 3.9375 0 7 C-0.99 7.33 -1.98 7.66 -3 8 C-1.125 2.25 -1.125 2.25 0 0 Z " fill="#706AA7" transform="translate(350,170)"/>
<path d="M0 0 C0.99 0.33 1.98 0.66 3 1 C2.34 2.65 1.68 4.3 1 6 C0.01 5.67 -0.98 5.34 -2 5 C-1.125 1.125 -1.125 1.125 0 0 Z " fill="#261D88" transform="translate(385,167)"/>
<path d="M0 0 C2.64 1.65 5.28 3.3 8 5 C7.67 5.66 7.34 6.32 7 7 C4.625 6.3125 4.625 6.3125 2 5 C0.6875 2.375 0.6875 2.375 0 0 Z " fill="#9490BD" transform="translate(408,67)"/>
<path d="" fill="#FFFFFF" transform="translate(0,0)"/>
<path d="" fill="#FFFFFF" transform="translate(0,0)"/>
<path d="" fill="#FFFFFF" transform="translate(0,0)"/>
<path d="" fill="#FFFFFF" transform="translate(0,0)"/>
<path d="" fill="#FFFFFF" transform="translate(0,0)"/>
<path d="" fill="#FFFFFF" transform="translate(0,0)"/>
<path d="" fill="#FFFFFF" transform="translate(0,0)"/>
<path d="" fill="#FFFFFF" transform="translate(0,0)"/>
<path d="" fill="#FFFFFF" transform="translate(0,0)"/>
</svg>
